<?xml version="1.0" standalone="no"?>
<!DOCTYPE svg PUBLIC "-//W3C//DTD SVG 20010904//EN"
 "http://www.w3.org/TR/2001/REC-SVG-20010904/DTD/svg10.dtd">
<svg version="1.0" xmlns="http://www.w3.org/2000/svg"
 width="64.000000pt" height="64.000000pt" viewBox="0 0 64.000000 64.000000"
 preserveAspectRatio="xMidYMid meet">

<g transform="translate(0.000000,64.000000) scale(0.100000,-0.100000)"
fill="#000000" stroke="none">
<path d="M189 594 c-8 -10 -15 -52 -17 -115 -4 -83 -7 -99 -22 -104 -25 -8
-30 -34 -30 -150 0 -134 3 -144 51 -151 48 -8 54 -34 8 -34 -17 0 -28 -4 -24
-10 8 -13 322 -13 330 0 4 6 -7 10 -24 10 -21 0 -31 5 -31 15 0 9 9 15 25 15
14 0 34 9 45 20 18 18 20 33 20 128 0 123 -5 149 -30 157 -15 5 -18 21 -22
104 -2 63 -9 105 -17 115 -20 24 -242 24 -262 0z m51 -174 c20 -13 141 -12
160 0 11 7 16 33 19 95 3 72 5 84 17 74 10 -8 14 -38 14 -108 0 -85 -2 -98
-20 -109 -14 -8 -20 -23 -20 -47 l0 -35 -90 0 -90 0 0 35 c0 24 -6 39 -20 47
-18 11 -20 24 -20 108 0 64 4 100 13 109 10 10 13 -5 17 -74 4 -60 10 -89 20
-95z m160 95 l0 -85 -80 0 -80 0 0 85 0 85 80 0 80 0 0 -85z m-188 -222 l3
-68 105 0 105 0 3 68 3 67 35 0 35 0 -3 -132 -3 -133 -175 0 -175 0 -3 133 -3
132 35 0 35 0 3 -67z m198 -38 c0 -12 -17 -15 -90 -15 -73 0 -90 3 -90 15 0
12 17 15 90 15 73 0 90 -3 90 -15z m0 -200 c0 -12 -17 -15 -90 -15 -73 0 -90
3 -90 15 0 12 17 15 90 15 73 0 90 -3 90 -15z"/>
<path d="M310 460 c0 -5 5 -10 10 -10 6 0 10 5 10 10 0 6 -4 10 -10 10 -5 0
-10 -4 -10 -10z"/>
<path d="M288 133 c17 -2 47 -2 65 0 17 2 3 4 -33 4 -36 0 -50 -2 -32 -4z"/>
</g>
</svg>
